<svg height="2222" width="720" xmlns="http://www.w3.org/2000/svg">
<rect height="2222" fill="#555" width="720"></rect>
<text fill="#7f7" font-family="Courier New" font-size="12" xml:space="preserve">
<tspan x="10" y="26"></tspan>
<tspan x="10" y="42">&gt; npmdoc-geoip-lite@0.0.1 test /home/travis/build/npmdoc/node-npmdoc-geoip-lite</tspan>
<tspan x="10" y="58">&gt; (set -e; export PORT=$(utility2 shServerPortRandom); utility2 test test.js)</tspan>
<tspan x="10" y="74"></tspan>
<tspan x="10" y="90"></tspan>
<tspan x="10" y="106">[MODE_BUILD=npmTest] - 2017-04-03T17:04:04Z - npm-testing /home/travis/build/npmdoc/node-npmdoc-\</tspan>
<tspan x="10" y="122">geoip-lite</tspan>
<tspan x="10" y="138"></tspan>
<tspan x="10" y="154"></tspan>
<tspan x="10" y="170">covering $ /home/travis/.nvm/versions/node/v6.10.1/bin/node /home/travis/build/npmdoc/node-npmdo\</tspan>
<tspan x="10" y="186">c-geoip-lite/test.js</tspan>
<tspan x="10" y="202">merging file:///home/travis/build/npmdoc/node-npmdoc-geoip-lite/tmp/build/test-report.json to te\</tspan>
<tspan x="10" y="218">st-report</tspan>
<tspan x="10" y="234">&gt; server listening on http-port 41158</tspan>
<tspan x="10" y="250">Fetching  https://geolite.maxmind.com/download/geoip/database/GeoIPCountryCSV.zip</tspan>
<tspan x="10" y="266">Retrieving GeoIPCountryCSV.zip ...created apidoc file:///home/travis/build/npmdoc/node-npmdoc-ge\</tspan>
<tspan x="10" y="282">oip-lite/tmp/build/apidoc.html</tspan>
<tspan x="10" y="298"></tspan>
<tspan x="10" y="314"></tspan>
<tspan x="10" y="330">browserTest - created electron entry-page /home/travis/build/npmdoc/node-npmdoc-geoip-lite/tmp/e\</tspan>
<tspan x="10" y="346">lectron.15b34c60a230.635c37c94433b.html</tspan>
<tspan x="10" y="362"></tspan>
<tspan x="10" y="378">[node test-case 1 of 6 passed] - testCase_buildLib_default</tspan>
<tspan x="10" y="394">[node test-case 2 of 6 passed] - testCase_buildReadme_default</tspan>
<tspan x="10" y="410">[node test-case 3 of 6 passed] - testCase_buildTest_default</tspan>
<tspan x="10" y="426"></tspan>
<tspan x="10" y="442">browserTest - created electron entry-page /home/travis/build/npmdoc/node-npmdoc-geoip-lite/tmp/e\</tspan>
<tspan x="10" y="458">lectron.15b34c60a510.b8ccde44351fa.html</tspan>
<tspan x="10" y="474"></tspan>
<tspan x="10" y="490">Xlib:  extension "RANDR" missing on display ":99.0".</tspan>
<tspan x="10" y="506">Xlib:  extension "RANDR" missing on display ":99.0".</tspan>
<tspan x="10" y="522"> DONE</tspan>
<tspan x="10" y="538">Extracting GeoIPCountryCSV.zip ...merging file:///home/travis/build/npmdoc/node-npmdoc-geoip-lit\</tspan>
<tspan x="10" y="554">e/tmp/build/test-report.json to test-report</tspan>
<tspan x="10" y="570">Xlib:  extension "RANDR" missing on display ":99.0".</tspan>
<tspan x="10" y="586">Processing Data (may take a moment) ...[5958:0403/170406:WARNING:audio_manager.cc(314)] Multiple\</tspan>
<tspan x="10" y="602"> instances of AudioManager detected</tspan>
<tspan x="10" y="618">[5958:0403/170406:WARNING:audio_manager.cc(275)] Multiple instances of AudioManager detected</tspan>
<tspan x="10" y="634">&gt; server listening on http-port 53395</tspan>
<tspan x="10" y="650">[5989:0403/170406:ERROR:sandbox_linux.cc(343)] InitializeSandbox() called with multiple threads \</tspan>
<tspan x="10" y="666">in process gpu-process. </tspan>
<tspan x="10" y="682">[5958:0403/170406:ERROR:browser_gpu_channel_host_factory.cc(131)] Failed to create channel.</tspan>
<tspan x="10" y="698">merging file:///home/travis/build/npmdoc/node-npmdoc-geoip-lite/tmp/build/test-report.json to te\</tspan>
<tspan x="10" y="714">st-report</tspan>
<tspan x="10" y="730">Xlib:  extension "RANDR" missing on display ":99.0".</tspan>
<tspan x="10" y="746">[5961:0403/170406:WARNING:audio_manager.cc(314)] Multiple instances of AudioManager detected</tspan>
<tspan x="10" y="762">[5961:0403/170406:WARNING:audio_manager.cc(275)] Multiple instances of AudioManager detected</tspan>
<tspan x="10" y="778">[6023:0403/170407:ERROR:sandbox_linux.cc(343)] InitializeSandbox() called with multiple threads \</tspan>
<tspan x="10" y="794">in process gpu-process. </tspan>
<tspan x="10" y="810">[5961:0403/170407:ERROR:browser_gpu_channel_host_factory.cc(131)] Failed to create channel.</tspan>
<tspan x="10" y="826"></tspan>
<tspan x="10" y="842">browserTest - opened url /home/travis/build/npmdoc/node-npmdoc-geoip-lite/tmp/build/apidoc.html</tspan>
<tspan x="10" y="858"></tspan>
<tspan x="10" y="874"></tspan>
<tspan x="10" y="890">browserTest - opened url http://127.0.0.1:41158?modeTest=1</tspan>
<tspan x="10" y="906"></tspan>
<tspan x="10" y="922">[5958:0403/170409:INFO:CONSOLE(245)] "----------|-----------|-----------|-----------|-----------\</tspan>
<tspan x="10" y="938">|</tspan>
<tspan x="10" y="954">File      |   % Stmts |% Branches |   % Funcs |   % Lines |</tspan>
<tspan x="10" y="970">----------|-----------|-----------|-----------|-----------|</tspan>
<tspan x="10" y="986">----------|-----------|-----------|-----------|-----------|</tspan>
<tspan x="10" y="1002">All files |       100 |       100 |       100 |       100 |</tspan>
<tspan x="10" y="1018">----------|-----------|-----------|-----------|-----------|</tspan>
<tspan x="10" y="1034">", source: file:///home/travis/build/npmdoc/node-npmdoc-geoip-lite/tmp/electron.15b34c60a510.b8c\</tspan>
<tspan x="10" y="1050">cde44351fa.html (245)</tspan>
<tspan x="10" y="1066">[5958:0403/170409:INFO:CONSOLE(245)] "created coverage file:///tmp/build/coverage.html/index.htm\</tspan>
<tspan x="10" y="1082">l", source: file:///home/travis/build/npmdoc/node-npmdoc-geoip-lite/tmp/electron.15b34c60a510.b8\</tspan>
<tspan x="10" y="1098">ccde44351fa.html (245)</tspan>
<tspan x="10" y="1114"> DONE</tspan>
<tspan x="10" y="1130">Fetching  https://geolite.maxmind.com/download/geoip/database/GeoIPv6.csv.gz</tspan>
<tspan x="10" y="1146">Retrieving GeoIPv6.csv ... DONE</tspan>
<tspan x="10" y="1162">Processing Data (may take a moment) ...[node test-case 4 of 6 passed] - testCase_buildApp_defaul\</tspan>
<tspan x="10" y="1178">t</tspan>
<tspan x="10" y="1194"> DONE</tspan>
<tspan x="10" y="1210">Fetching  https://geolite.maxmind.com/download/geoip/database/GeoLiteCity_CSV/GeoLiteCity-latest\</tspan>
<tspan x="10" y="1226">.zip</tspan>
<tspan x="10" y="1242">Retrieving GeoLiteCity-latest.zip ... DONE</tspan>
<tspan x="10" y="1258">Extracting GeoLiteCity-latest.zip ...Processing Data (may take a moment) ...</tspan>
<tspan x="10" y="1274">browserTest - created screenCapture file:///home/travis/build/npmdoc/node-npmdoc-geoip-lite/tmp/\</tspan>
<tspan x="10" y="1290">build/screenCapture.npmTest.browser._2Fhome_2Ftravis_2Fbuild_2Fnpmdoc_2Fnode-npmdoc-geoip-lite_2\</tspan>
<tspan x="10" y="1306">Ftmp_2Fbuild_2Fapidoc.html.png</tspan>
<tspan x="10" y="1322"></tspan>
<tspan x="10" y="1338">browserTest - created screenCapture file:///home/travis/build/npmdoc/node-npmdoc-geoip-lite/tmp/\</tspan>
<tspan x="10" y="1354">build/screenCapture.npmTest.browser._2Fhome_2Ftravis_2Fbuild_2Fnpmdoc_2Fnode-npmdoc-geoip-lite_2\</tspan>
<tspan x="10" y="1370">Ftmp_2Fbuild_2Fapidoc.html.html</tspan>
<tspan x="10" y="1386"></tspan>
<tspan x="10" y="1402">browserTest - created screenCapture file:///home/travis/build/npmdoc/node-npmdoc-geoip-lite/tmp/\</tspan>
<tspan x="10" y="1418">build/screenCapture.npmTest.browser..png</tspan>
<tspan x="10" y="1434"></tspan>
<tspan x="10" y="1450">browserTest - created screenCapture file:///home/travis/build/npmdoc/node-npmdoc-geoip-lite/tmp/\</tspan>
<tspan x="10" y="1466">build/screenCapture.npmTest.browser..html</tspan>
<tspan x="10" y="1482"></tspan>
<tspan x="10" y="1498">browserTest - exit-code 0 - /home/travis/build/npmdoc/node-npmdoc-geoip-lite/tmp/build/apidoc.ht\</tspan>
<tspan x="10" y="1514">ml</tspan>
<tspan x="10" y="1530"></tspan>
<tspan x="10" y="1546">[node test-case 5 of 6 passed] - testCase_buildApidoc_default</tspan>
<tspan x="10" y="1562"></tspan>
<tspan x="10" y="1578">browserTest - exit-code 0 - http://127.0.0.1:41158?modeTest=1</tspan>
<tspan x="10" y="1594"></tspan>
<tspan x="10" y="1610"></tspan>
<tspan x="10" y="1626">browserTest - merged coverage from /home/travis/build/npmdoc/node-npmdoc-geoip-lite/tmp/coverage\</tspan>
<tspan x="10" y="1642">.npmTest.browser.%2F.json</tspan>
<tspan x="10" y="1658"></tspan>
<tspan x="10" y="1674"></tspan>
<tspan x="10" y="1690">browserTest - merging test-report from /home/travis/build/npmdoc/node-npmdoc-geoip-lite/tmp/test\</tspan>
<tspan x="10" y="1706">-report.npmTest.browser.%2F.json</tspan>
<tspan x="10" y="1722"></tspan>
<tspan x="10" y="1738">[node test-case 6 of 6 passed] - testCase_webpage_default</tspan>
<tspan x="10" y="1754">-------------------------------|-----------|-----------|-----------|-----------|</tspan>
<tspan x="10" y="1770">File                           |   % Stmts |% Branches |   % Funcs |   % Lines |</tspan>
<tspan x="10" y="1786">-------------------------------|-----------|-----------|-----------|-----------|</tspan>
<tspan x="10" y="1802">   node-npmdoc-geoip-lite/     |       100 |       100 |       100 |       100 |</tspan>
<tspan x="10" y="1818">      example.js               |       100 |       100 |       100 |       100 |</tspan>
<tspan x="10" y="1834">      lib.npmdoc_geoip_lite.js |       100 |       100 |       100 |       100 |</tspan>
<tspan x="10" y="1850">      test.js                  |       100 |       100 |       100 |       100 |</tspan>
<tspan x="10" y="1866">-------------------------------|-----------|-----------|-----------|-----------|</tspan>
<tspan x="10" y="1882">All files                      |       100 |       100 |       100 |       100 |</tspan>
<tspan x="10" y="1898">-------------------------------|-----------|-----------|-----------|-----------|</tspan>
<tspan x="10" y="1914"></tspan>
<tspan x="10" y="1930">created coverage file:///home/travis/build/npmdoc/node-npmdoc-geoip-lite/tmp/build/coverage.html\</tspan>
<tspan x="10" y="1946">/index.html</tspan>
<tspan x="10" y="1962">merging file:///home/travis/build/npmdoc/node-npmdoc-geoip-lite/tmp/build/test-report.json to te\</tspan>
<tspan x="10" y="1978">st-report</tspan>
<tspan x="10" y="1994"></tspan>
<tspan x="10" y="2010">-------------------------------------------------------</tspan>
<tspan x="10" y="2026">| test-report - buildNpmdoc - node - linux v6.10.1 - 2017-04-03T17:03:30.980Z</tspan>
<tspan x="10" y="2042">|   45418 ms            0 failed        6 passed      |</tspan>
<tspan x="10" y="2058">-------------------------------------------------------</tspan>
<tspan x="10" y="2074"></tspan>
<tspan x="10" y="2090">created test-report file:///home/travis/build/npmdoc/node-npmdoc-geoip-lite/tmp/build/test-repor\</tspan>
<tspan x="10" y="2106">t.html</tspan>
<tspan x="10" y="2122"></tspan>
<tspan x="10" y="2138"></tspan>
<tspan x="10" y="2154">npmTest - 0 failed tests</tspan>
<tspan x="10" y="2170"></tspan>
<tspan x="10" y="2186"></tspan>
<tspan x="10" y="2202">[MODE_BUILD=npmTest] - 2017-04-03T17:04:19Z - EXIT_CODE - 0</tspan>
</text>
</svg>
