<svg height="622" width="720" xmlns="http://www.w3.org/2000/svg">
<rect height="622" fill="#555" width="720"></rect>
<text fill="#7f7" font-family="Courier New" font-size="12" xml:space="preserve">
<tspan x="10" y="26">└─┬ geoip-lite@1.2.0 </tspan>
<tspan x="10" y="42">  ├─┬ async@2.3.0 </tspan>
<tspan x="10" y="58">  │ └── lodash@4.17.4 </tspan>
<tspan x="10" y="74">  ├── colors@1.1.2 </tspan>
<tspan x="10" y="90">  ├─┬ glob@7.1.1 </tspan>
<tspan x="10" y="106">  │ ├── fs.realpath@1.0.0 </tspan>
<tspan x="10" y="122">  │ ├─┬ inflight@1.0.6 </tspan>
<tspan x="10" y="138">  │ │ └── wrappy@1.0.2 </tspan>
<tspan x="10" y="154">  │ ├── inherits@2.0.3 </tspan>
<tspan x="10" y="170">  │ ├─┬ minimatch@3.0.3 </tspan>
<tspan x="10" y="186">  │ │ └─┬ brace-expansion@1.1.6 </tspan>
<tspan x="10" y="202">  │ │   ├── balanced-match@0.4.2 </tspan>
<tspan x="10" y="218">  │ │   └── concat-map@0.0.1 </tspan>
<tspan x="10" y="234">  │ ├── once@1.4.0 </tspan>
<tspan x="10" y="250">  │ └── path-is-absolute@1.0.1 </tspan>
<tspan x="10" y="266">  ├── iconv-lite@0.4.15 </tspan>
<tspan x="10" y="282">  ├── lazy@1.0.11 </tspan>
<tspan x="10" y="298">  ├── rimraf@2.6.1 </tspan>
<tspan x="10" y="314">  └─┬ unzip@0.1.11 </tspan>
<tspan x="10" y="330">    ├─┬ binary@0.3.0 </tspan>
<tspan x="10" y="346">    │ ├── buffers@0.1.1 </tspan>
<tspan x="10" y="362">    │ └─┬ chainsaw@0.1.0 </tspan>
<tspan x="10" y="378">    │   └── traverse@0.3.9 </tspan>
<tspan x="10" y="394">    ├─┬ fstream@0.1.31 </tspan>
<tspan x="10" y="410">    │ ├─┬ graceful-fs@3.0.11 </tspan>
<tspan x="10" y="426">    │ │ └── natives@1.1.0 </tspan>
<tspan x="10" y="442">    │ └─┬ mkdirp@0.5.1 </tspan>
<tspan x="10" y="458">    │   └── minimist@0.0.8 </tspan>
<tspan x="10" y="474">    ├── match-stream@0.0.2 </tspan>
<tspan x="10" y="490">    ├─┬ pullstream@0.4.1 </tspan>
<tspan x="10" y="506">    │ ├── over@0.0.5 </tspan>
<tspan x="10" y="522">    │ └── slice-stream@1.0.0 </tspan>
<tspan x="10" y="538">    ├─┬ readable-stream@1.0.34 </tspan>
<tspan x="10" y="554">    │ ├── core-util-is@1.0.2 </tspan>
<tspan x="10" y="570">    │ ├── isarray@0.0.1 </tspan>
<tspan x="10" y="586">    │ └── string_decoder@0.10.31 </tspan>
<tspan x="10" y="602">    └── setimmediate@1.0.5</tspan>
</text>
</svg>
